<svg width="23" height="27" viewBox="0 0 23 27" fill="none" xmlns="http://www.w3.org/2000/svg">
<path d="M2.39999 5.49996H6.89999V3.99997C6.89999 1.85966e-05 16.4 -2.47955e-05 16.4 3.99997V5.49996H20.9V12.5C20.9 16 21.9 20.5 21.9 25C17.5667 25.6666 7.39999 26.6 1.39999 25C1.39999 20 2.39999 15.5 2.39999 12.5V5.49996Z" fill="white"/>
<path d="M6.89999 7.99996V3.99997C6.89999 1.85966e-05 16.4 -2.47955e-05 16.4 3.99997V7.99996M2.39999 5.49996H20.9V12.5C20.9 16 21.9 20.5 21.9 25C17.5667 25.6666 7.39999 26.6 1.39999 25C1.39999 20 2.39999 15.5 2.39999 12.5V5.49996ZM9.39999 16C9.39999 12 13.9 12 13.9 16C13.9 20 9.39999 20 9.39999 16Z" stroke="#222222" stroke-width="1.5"/>
</svg>
