<svg width="101" height="102" viewBox="0 0 101 102" fill="none" xmlns="http://www.w3.org/2000/svg">
<path d="M24.3677 85.8904C21.8479 89.3203 22.5661 94.2031 26.3363 96.1778C33.8553 100.116 42.2776 102.135 50.8455 101.993C61.9955 101.808 72.7776 97.9738 81.5408 91.0771C90.304 84.1805 96.5652 74.6017 99.3656 63.8076C102.166 53.0134 101.351 41.5988 97.0465 31.3118C92.7415 21.0247 85.1835 12.4321 75.5297 6.84987C65.8759 1.2676 54.6586 -0.996675 43.5953 0.403751C32.5321 1.80418 22.2328 6.79211 14.2744 14.6038C8.15908 20.6065 3.68507 28.0222 1.21221 36.142C-0.0277199 40.2135 2.94584 44.1524 7.15752 44.7653C11.3692 45.3782 15.2035 42.4097 16.707 38.4281C18.5208 33.6251 21.3636 29.2419 25.0709 25.6029C30.6242 20.152 37.811 16.6714 45.5309 15.6942C53.2507 14.717 61.0781 16.297 67.8145 20.1923C74.5508 24.0876 79.8248 30.0834 82.8288 37.2616C85.8328 44.4399 86.4012 52.4049 84.4471 59.937C82.4929 67.4692 78.1239 74.1532 72.009 78.9656C65.8941 83.7781 58.3704 86.4536 50.59 86.5826C45.3959 86.6688 40.2785 85.6168 35.5845 83.5372C31.6932 81.8132 26.8875 82.4604 24.3677 85.8904Z" fill="#CC071E"/>
</svg>
