<svg width="102" height="102" viewBox="0 0 102 102" fill="none" xmlns="http://www.w3.org/2000/svg">
<g filter="url(#filter0_i_139_512)">
<path d="M-5.65766e-05 51C-5.41142e-05 22.8335 22.8334 -6.92096e-06 50.9999 -4.45856e-06C79.1665 -1.99617e-06 102 22.8335 102 51C102 79.1665 79.1665 102 50.9999 102C22.8334 102 -5.9039e-05 79.1665 -5.65766e-05 51ZM86.5875 51C86.5875 31.3456 70.6544 15.4125 50.9999 15.4125C31.3455 15.4125 15.4124 31.3456 15.4124 51C15.4124 70.6544 31.3455 86.5875 50.9999 86.5875C70.6544 86.5875 86.5875 70.6544 86.5875 51Z" fill="white"/>
</g>
<defs>
<filter id="filter0_i_139_512" x="-6.10352e-05" y="0" width="102" height="104" filterUnits="userSpaceOnUse" color-interpolation-filters="sRGB">
<feFlood flood-opacity="0" result="BackgroundImageFix"/>
<feBlend mode="normal" in="SourceGraphic" in2="BackgroundImageFix" result="shape"/>
<feColorMatrix in="SourceAlpha" type="matrix" values="0 0 0 0 0 0 0 0 0 0 0 0 0 0 0 0 0 0 127 0" result="hardAlpha"/>
<feOffset dy="2"/>
<feGaussianBlur stdDeviation="2"/>
<feComposite in2="hardAlpha" operator="arithmetic" k2="-1" k3="1"/>
<feColorMatrix type="matrix" values="0 0 0 0 0 0 0 0 0 0 0 0 0 0 0 0 0 0 0.25 0"/>
<feBlend mode="normal" in2="shape" result="effect1_innerShadow_139_512"/>
</filter>
</defs>
</svg>
